<?xml version="1.0" encoding="UTF-8"?>
<svg version="1.1" xmlns="http://www.w3.org/2000/svg" width="1536" height="1024">
<path d="M0 0 C506.88 0 1013.76 0 1536 0 C1536 337.92 1536 675.84 1536 1024 C1029.12 1024 522.24 1024 0 1024 C0 686.08 0 348.16 0 0 Z " fill="#000000" transform="translate(0,0)"/>
<path d="M0 0 C60.06 0 120.12 0 182 0 C175.23937164 7.88739976 175.23937164 7.88739976 172.51953125 10.4296875 C171.91882813 10.99236328 171.318125 11.55503906 170.69921875 12.13476562 C169.76529297 12.99618164 169.76529297 12.99618164 168.8125 13.875 C168.1525 14.48794922 167.4925 15.10089844 166.8125 15.73242188 C162.31072419 19.88017454 157.66071463 23.77657286 152.875 27.59375 C148.60946071 31.16382092 144.60969755 35.00325044 140.57104492 38.82568359 C135.96642675 43.16034532 131.23476482 47.21248984 126.26953125 51.1328125 C123.93898831 52.97931271 123.93898831 52.97931271 121.82421875 55.2421875 C120 57 120 57 118 57 C118 57.66 118 58.32 118 59 C116.48848454 60.35097374 114.91186687 61.62927345 113.3125 62.875 C108.86703417 66.4245247 104.64506471 70.10560741 100.5 74 C95.71764595 78.47997676 90.7917722 82.68457711 85.6796875 86.7890625 C82.86746685 89.1093495 80.18202737 91.53071134 77.5 94 C73.07381119 98.06832674 68.53133687 101.92605878 63.8359375 105.6796875 C61.7871396 107.35597669 59.81326901 109.0484098 57.8515625 110.8203125 C57.32361084 111.28759766 56.79565918 111.75488281 56.25170898 112.23632812 C54.76597373 113.55533267 53.29465897 114.89052814 51.82421875 116.2265625 C49 118 49 118 46.12109375 118.0546875 C42.13709116 116.70840377 38.8868192 114.78656845 35.375 112.5 C34.67205811 112.05076172 33.96911621 111.60152344 33.24487305 111.13867188 C26.93184661 107.05584136 20.93098253 102.61819588 15 98 C13.81472298 97.09384625 12.62848714 96.1889456 11.44140625 95.28515625 C10.25238796 94.37788745 9.06358128 93.47034124 7.875 92.5625 C7.3178833 92.13710938 6.7607666 91.71171875 6.18676758 91.2734375 C4.00799837 89.59793043 1.94597291 87.94597291 0 86 C0 57.62 0 29.24 0 0 Z " fill="#FCFCFD" transform="translate(777,222)"/>
<path d="M0 0 C0.99 0 1.98 0 3 0 C3 3.3 3 6.6 3 10 C8.28 10 13.56 10 19 10 C19 13.63 19 17.26 19 21 C22.96 21 26.92 21 31 21 C31 17.37 31 13.74 31 10 C34.63 10 38.26 10 42 10 C42 6.7 42 3.4 42 0 C94.14 0 146.28 0 200 0 C198.31102769 3.37794462 197.71776869 4.52829155 195.05859375 6.76953125 C194.47996582 7.26187256 193.90133789 7.75421387 193.30517578 8.26147461 C192.68884277 8.77331299 192.07250977 9.28515137 191.4375 9.8125 C190.48206299 10.61796265 190.48206299 10.61796265 189.50732422 11.43969727 C185.58204712 14.7323308 181.59860096 17.93345466 177.5234375 21.0390625 C174.05046455 23.7378743 170.65520358 26.52896353 167.25 29.3125 C160.26607903 35.01072604 153.18893632 40.56244995 146 46 C145.48131096 46.49987238 144.96262192 46.99974476 144.42821503 47.51476479 C138.25719603 53.04582197 132.41891662 52.81785325 124.42382812 52.68115234 C123.06306026 52.67945737 121.70228691 52.68041483 120.34152222 52.68380737 C116.66807167 52.68552084 112.9958094 52.65037921 109.32263374 52.60836363 C105.47634112 52.57071937 101.63001776 52.56732055 97.78356934 52.56021118 C90.50913485 52.54160227 83.23524486 52.49241966 75.96104956 52.43211424 C67.67573002 52.36492518 59.39038374 52.33202909 51.10485935 52.30194163 C34.06953773 52.2393162 17.03496562 52.12933415 0 52 C0 34.84 0 17.68 0 0 Z " fill="#FDFDFD" transform="translate(529,222)"/>
<path d="M0 0 C2.29497295 0.01493746 4.58997157 0.02631736 6.88497925 0.03430176 C12.89928732 0.06471664 18.91202774 0.14318978 24.92572021 0.23193359 C31.0726603 0.31405405 37.21985593 0.35036923 43.3671875 0.390625 C55.40953956 0.47619277 67.45073272 0.61257191 79.4921875 0.78125 C79.55380472 2.88505118 79.59803954 4.98936713 79.63476562 7.09375 C79.66123169 8.26550781 79.68769775 9.43726563 79.71496582 10.64453125 C79.4921875 13.78125 79.4921875 13.78125 77.2109375 16.78125 C76.14875 17.44125 75.0865625 18.10125 73.9921875 18.78125 C72.78782259 19.5834362 71.58611494 20.38962236 70.38671875 21.19921875 C69.74943848 21.61220215 69.1121582 22.02518555 68.45556641 22.45068359 C65.02124382 24.77809694 61.87088789 27.44800037 58.6796875 30.09375 C57.31970338 31.20527548 55.95901987 32.31594577 54.59765625 33.42578125 C53.91880371 33.98088379 53.23995117 34.53598633 52.54052734 35.10791016 C49.19684247 37.83944962 45.84415344 40.55988447 42.4921875 43.28125 C41.17312714 44.35280311 39.8541169 45.42441791 38.53515625 46.49609375 C37.87692871 47.03089355 37.21870117 47.56569336 36.54052734 48.11669922 C34.39524515 49.86002866 32.25032616 51.60380422 30.10546875 53.34765625 C29.02555664 54.22550781 29.02555664 54.22550781 27.92382812 55.12109375 C26.55130482 56.23682237 25.17890127 57.35269833 23.80664062 58.46875 C23.18337891 58.97535156 22.56011719 59.48195313 21.91796875 60.00390625 C21.37567627 60.44484619 20.83338379 60.88578613 20.2746582 61.34008789 C19.68644287 61.81567139 19.09822754 62.29125488 18.4921875 62.78125 C17.85986206 63.46160812 17.22753662 64.14196625 16.5760498 64.84294128 C11.95167012 67.74951575 7.72410453 67.30820088 2.36791992 67.23535156 C1.24552917 67.23593567 0.12313843 67.23651978 -1.03326416 67.23712158 C-4.73993955 67.23433681 -8.44580898 67.20322451 -12.15234375 67.171875 C-14.72352153 67.16441405 -17.294705 67.15872043 -19.8658905 67.15472412 C-25.9397148 67.1410166 -32.01320692 67.10949749 -38.08690614 67.06932616 C-45.00341551 67.02457607 -51.91993887 67.00261334 -58.83655703 66.98254442 C-73.06046382 66.94076356 -87.28412789 66.87043181 -101.5078125 66.78125 C-99.8202556 63.14313418 -98.05638559 61.34138078 -94.8828125 58.84375 C-93.89925781 58.06 -92.91570313 57.27625 -91.90234375 56.46875 C-91.3604541 56.04078125 -90.81856445 55.6128125 -90.26025391 55.171875 C-87.00750681 52.59070372 -83.79173027 49.96383135 -80.5703125 47.34375 C-79.88324219 46.78647217 -79.19617188 46.22919434 -78.48828125 45.6550293 C-74.42417565 42.35534886 -70.39165086 39.02281786 -66.3828125 35.65625 C-62.17515881 32.13184183 -57.90027459 28.71499413 -53.5703125 25.34375 C-47.86329429 20.89963158 -42.3208624 16.29701348 -36.8359375 11.58203125 C-36.30364532 11.15320145 -35.77135315 10.72437164 -35.22293091 10.282547 C-33.42528153 8.78463956 -33.42528153 8.78463956 -31.82174683 6.78520203 C-23.19893188 -2.16303724 -11.48286707 -0.2197365 0 0 Z " fill="#FBFBFB" transform="translate(686.5078125,284.21875)"/>
<path d="M0 0 C0 38.94 0 77.88 0 118 C-3.63 118 -7.26 118 -11 118 C-10.89679443 119.20140625 -10.79358887 120.4028125 -10.68725586 121.640625 C-10.69690773 125.17000976 -10.94970731 125.92825559 -13.09204102 128.984375 C-14.04257211 129.92695164 -15.01466649 130.84813261 -16.00390625 131.75 C-16.52000961 132.25241211 -17.03611298 132.75482422 -17.56785583 133.27246094 C-19.21480361 134.86831401 -20.88688801 136.43432362 -22.5625 138 C-24.202067 139.5667887 -25.83595189 141.13933231 -27.46929932 142.71260071 C-28.53182376 143.73540281 -29.59655752 144.75591488 -30.66351318 145.77409363 C-34.08495995 149.05387587 -37.24655819 152.45173235 -40.30737305 156.06494141 C-43.7149133 159.96053697 -47.44724454 163.54938867 -51.125 167.1875 C-51.91003906 167.96802734 -52.69507813 168.74855469 -53.50390625 169.55273438 C-55.00778052 171.04773249 -56.51322477 172.54115357 -58.02050781 174.03271484 C-59.67024034 175.67227388 -61.30217758 177.32679035 -62.9296875 178.98828125 C-65 181 -65 181 -67 182 C-67.25770502 167.58748322 -67.45056263 153.17532688 -67.56993389 138.76097393 C-67.62650182 132.06693671 -67.70491099 125.37454738 -67.82983398 118.68139648 C-67.94973043 112.21678837 -68.0152042 105.75366892 -68.04364967 99.28803444 C-68.06390873 96.82677596 -68.10347276 94.36559516 -68.16303062 91.90497398 C-68.65859276 70.57431585 -68.65859276 70.57431585 -63.17030048 64.53974628 C-60.92342891 62.48477254 -58.49037551 60.74654447 -56 59 C-54.72180627 57.64701085 -53.47537915 56.26166945 -52.29296875 54.82421875 C-48.76058095 50.69557648 -45.05210237 46.75331397 -41.3125 42.8125 C-36.31868708 37.53175297 -31.35035021 32.23116251 -26.4375 26.875 C-22.90493373 23.02542349 -19.30874642 19.26755716 -15.578125 15.609375 C-13.16970813 13.15326671 -10.95453691 10.53623574 -8.70703125 7.93359375 C-1.7030303 0 -1.7030303 0 0 0 Z " fill="#FCFCFD" transform="translate(838,363)"/>
<path d="M0 0 C0.0231863 12.52633045 0.04094717 25.05265578 0.05181217 37.57900333 C0.05702723 43.39569419 0.0640999 49.21237034 0.07543945 55.02905273 C0.08631724 60.64410484 0.09228722 66.25914281 0.09487724 71.87420464 C0.09672267 74.01476705 0.1003263 76.1553287 0.10573006 78.29588509 C0.11300536 81.29761542 0.1139882 84.29928763 0.11352539 87.30102539 C0.11712067 88.1828801 0.12071594 89.0647348 0.12442017 89.97331238 C0.11645703 94.75696729 -0.19646003 99.28246439 -1 104 C-7.31433847 104.93644211 -13.44447076 105.13689663 -19.82226562 105.11352539 C-21.40409637 105.11374443 -21.40409637 105.11374443 -23.0178833 105.1139679 C-26.48069361 105.11327489 -29.94344917 105.10551127 -33.40625 105.09765625 C-35.8162025 105.09578989 -38.22615538 105.09436702 -40.6361084 105.09336853 C-46.96208758 105.08956049 -53.2880436 105.07974488 -59.61401367 105.06866455 C-66.07600593 105.05841354 -72.53800195 105.05386301 -79 105.04882812 C-91.66667652 105.03812103 -104.33333702 105.02125898 -117 105 C-113.2475026 97.11975547 -105.53145348 91.59541716 -99 86 C-96.55995688 83.89877097 -94.12311737 81.79385686 -91.6875 79.6875 C-91.03700684 79.12506592 -90.38651367 78.56263184 -89.71630859 77.9831543 C-84.87717969 73.78767417 -80.12373452 69.51093892 -75.3984375 65.1875 C-70.96160717 61.1408795 -66.42886492 57.21073513 -61.8515625 53.32421875 C-55.40327603 47.84113609 -49.07351779 42.27406952 -42.88916016 36.49462891 C-39.07673651 32.94885654 -35.16479005 29.54656134 -31.1875 26.1875 C-25.102341 21.04347788 -19.27512639 15.65656075 -13.50463867 10.1628418 C-2.80597522 0 -2.80597522 0 0 0 Z " fill="#FAF9FA" transform="translate(827,652)"/>
<path d="M0 0 C0 46.53 0 93.06 0 141 C-0.66 141.33 -1.32 141.66 -2 142 C-10.33436959 136.05018615 -17.58131756 128.92825753 -24.98974609 121.89697266 C-27.9870841 119.06853978 -31.02422954 116.28430015 -34.0625 113.5 C-37.94435294 109.93604486 -41.73095548 106.30432494 -45.42578125 102.546875 C-47.06355173 100.93755215 -48.76039229 99.43601069 -50.5 97.9375 C-52 96.625 -53.5 95.3125 -55 94 C-55.60070312 93.48453613 -56.20140625 92.96907227 -56.8203125 92.43798828 C-58.89795004 90.64462209 -60.94955074 88.82435318 -63 87 C-63.68384766 86.41855225 -64.36769531 85.83710449 -65.07226562 85.23803711 C-68.41104805 82.22780509 -69.85478693 80.82373842 -70.65625 76.27734375 C-69.9281083 72.64096942 -69.41973982 71.72423044 -66.5 69.5625 C-65.76652344 68.98113281 -65.03304687 68.39976562 -64.27734375 67.80078125 C-63.52582031 67.20652344 -62.77429688 66.61226562 -62 66 C-56.52804169 60.97779169 -51.86966281 55.45189955 -47.2265625 49.66796875 C-44.61589365 46.53974625 -41.8048362 43.71676113 -38.88671875 40.87890625 C-36.44869145 38.45097431 -34.22331516 35.87286979 -31.98046875 33.265625 C-29.53394191 30.4668369 -27.01921501 27.73311864 -24.5 25 C-21.44129308 21.67816189 -18.39882941 18.34687925 -15.4375 14.9375 C-12.53846541 11.60923942 -9.62695194 8.29262764 -6.6875 5 C-5.84574219 4.05125 -5.00398437 3.1025 -4.13671875 2.125 C-2 0 -2 0 0 0 Z " fill="#FAFAFA" transform="translate(759,448)"/>
<path d="M0 0 C36.63 0 73.26 0 111 0 C111.495 1.485 111.495 1.485 112 3 C111.15179687 3.65484375 110.30359375 4.3096875 109.4296875 4.984375 C103.1609867 9.85200673 96.99296776 14.7954238 91 20 C85.79748031 24.51488485 80.4796804 28.83715813 75.04125977 33.06420898 C71.4624081 35.84608314 67.93264057 38.67520996 64.4375 41.5625 C59.98699855 45.22877212 55.4448847 48.75259954 50.86206055 52.25 C42.11810711 58.76924481 42.11810711 58.76924481 34 66 C31.47931819 66.08846834 28.98545583 66.11534524 26.46484375 66.09765625 C25.46378601 66.09614563 25.46378601 66.09614563 24.44250488 66.09460449 C21.9408192 66.08935808 19.43915794 66.07539691 16.9375 66.0625 C8.5534375 66.0315625 8.5534375 66.0315625 0 66 C0 44.22 0 22.44 0 0 Z " fill="#FAFAFB" transform="translate(529,285)"/>
<path d="M0 0 C2.2668643 0.0401731 4.53379695 0.0766671 6.80078125 0.109375 C12.32702407 0.19707431 17.85069152 0.33054445 23.375 0.5 C23.47160368 3.2209095 23.54201821 5.93835436 23.59765625 8.66015625 C23.6275061 9.42541626 23.65735596 10.19067627 23.68811035 10.97912598 C23.78610263 17.37613076 22.03634803 20.61662544 17.57421875 25.2734375 C16.48560547 26.37558594 16.48560547 26.37558594 15.375 27.5 C14.25550158 28.9944124 13.17206057 30.51646983 12.125 32.0625 C10.00205493 35.14125066 7.87670336 38.21752791 5.7265625 41.27734375 C5.24751465 41.96183594 4.7684668 42.64632812 4.27490234 43.3515625 C3.24723124 44.79945006 2.2028084 46.23557449 1.14306641 47.66015625 C-1.69996726 51.52251942 -4.02401383 55.19864754 -5.953125 59.59765625 C-8.62178798 65.10570836 -11.1054825 69.51650265 -16.625 72.5 C-22.90489208 74.21175105 -29.40863055 74.23781244 -35.875 74.25 C-36.72350525 74.26233673 -37.5720105 74.27467346 -38.44622803 74.28738403 C-52.04502444 74.33963292 -52.04502444 74.33963292 -57.62744141 70.35913086 C-59.90720913 67.8550581 -61.78039586 65.33504318 -63.625 62.5 C-64.52370927 61.39488717 -65.43509644 60.29976301 -66.3671875 59.22265625 C-67.42292969 57.90587891 -67.42292969 57.90587891 -68.5 56.5625 C-71.27924352 53.06583398 -71.27924352 53.06583398 -74.3828125 49.87109375 C-75.625 48.5 -75.625 48.5 -75.625 45.5 C-74.26171875 44.02734375 -74.26171875 44.02734375 -72.3125 42.4375 C-68.84177644 39.53192081 -65.46260468 36.55830722 -62.125 33.5 C-59.04941528 30.69368672 -55.96453227 27.90756211 -52.8125 25.1875 C-50.28260713 22.9952725 -47.81226399 20.7508848 -45.37109375 18.4609375 C-44.77594971 17.90317627 -44.18080566 17.34541504 -43.56762695 16.77075195 C-42.40027562 15.67364554 -41.23579262 14.57347461 -40.07495117 13.46948242 C-38.91555467 12.37967313 -37.73503102 11.31203317 -36.53759766 10.26416016 C-34.55582478 8.51402794 -34.55582478 8.51402794 -32.81787109 6.32568359 C-24.21103957 -2.71359166 -11.48094901 -0.35341385 0 0 Z " fill="#FCFCFC" transform="translate(939.625,278.5)"/>
<path d="M0 0 C0.66 0 1.32 0 2 0 C2.23376694 4.49911447 2.37490714 8.99665691 2.5 13.5 C2.60054687 15.40265625 2.60054687 15.40265625 2.703125 17.34375 C2.89700499 26.64998948 2.89700499 26.64998948 0.29785156 30.56176758 C-1.7055844 32.55393018 -3.77567263 34.2634033 -6 36 C-7.11124028 37.2039962 -8.19925036 38.43036556 -9.25 39.6875 C-12.34294424 43.27953298 -15.52945314 46.77285009 -18.75 50.25 C-19.2644165 50.80558594 -19.77883301 51.36117187 -20.30883789 51.93359375 C-21.3569943 53.06536145 -22.40525305 54.19703438 -23.45361328 55.32861328 C-29.15708178 61.49311365 -34.83048997 67.68507875 -40.4375 73.9375 C-43.963169 77.8682728 -47.53623507 81.75202043 -51.125 85.625 C-57.12277998 92.10312776 -62.94013361 98.71571981 -68.640625 105.45703125 C-70.04415908 107.05012309 -71.41701419 108.58297238 -73 110 C-73.66 110 -74.32 110 -75 110 C-75.4663781 102.51785702 -75.82014242 95.03723368 -76.03624344 87.5438118 C-76.14008712 84.0615404 -76.28026875 80.58928695 -76.50878906 77.11279297 C-77.93975356 54.75789253 -77.93975356 54.75789253 -73.1496582 48.63470459 C-68.43882334 44.66029646 -63.10893951 42.26174362 -57.41540527 40.00610352 C-54.30708617 38.71137637 -51.67382848 36.98973228 -48.9375 35.0390625 C-47.6987915 34.18948975 -47.6987915 34.18948975 -46.43505859 33.32275391 C-45.63148926 32.76249512 -44.82791992 32.20223633 -44 31.625 C-43.09975098 31.00415527 -42.19950195 30.38331055 -41.27197266 29.74365234 C-38.51005121 27.83563499 -35.75464565 25.91850187 -33 24 C-31.19538068 22.74990157 -29.39069402 21.49990034 -27.5859375 20.25 C-13.17723771 10.89780831 -13.17723771 10.89780831 0 0 Z " fill="#FCFCFC" transform="translate(764,392)"/>
<path d="M0 0 C3.97612966 3.40811114 7.89565608 6.78378169 11.75 10.3125 C15.30945089 13.53605142 18.94728085 16.61332834 22.6875 19.625 C26.46752288 22.68299604 29.95748183 25.83758786 33.3359375 29.328125 C35.71383098 31.71718229 38.2553323 33.89524699 40.80859375 36.09375 C44.22393374 39.06466964 47.55611489 42.12710183 50.8984375 45.1796875 C52.86723421 47.03676667 52.86723421 47.03676667 55 48 C55.64047886 51.60997174 55.92086648 53.5223143 55 57 C51.75883044 60.8543638 47.93219332 63.87401034 44 67 C42.57578124 68.22040815 41.1580772 69.44850293 39.75 70.6875 C39.11578125 71.23792969 38.4815625 71.78835938 37.828125 72.35546875 C35.38459749 74.55359926 33.09900086 76.8900083 30.796875 79.234375 C28.23420129 81.75248047 25.52543569 84.08622705 22.796875 86.421875 C20.98031867 87.96801194 20.98031867 87.96801194 19.390625 89.703125 C18 91 18 91 16 91 C15.67322266 91.82951172 15.67322266 91.82951172 15.33984375 92.67578125 C13.54670761 95.78632354 11.2280373 97.79099435 8.5625 100.1875 C7.11037109 101.50814453 7.11037109 101.50814453 5.62890625 102.85546875 C3 105 3 105 0 106 C0 71.02 0 36.04 0 0 Z " fill="#FCFCFD" transform="translate(771,579)"/>
<path d="M0 0 C2.76456938 1.51093297 5.08337024 3.34623801 7.53515625 5.328125 C20.60709683 15.65917481 34.55990091 24.74070151 48.97265625 33.078125 C47.72824316 36.81136426 46.24577657 37.67672664 43.16015625 40.078125 C38.88882296 43.48409726 34.78994 46.98827457 30.78515625 50.703125 C30.02054077 51.41094116 30.02054077 51.41094116 29.24047852 52.13305664 C28.74346436 52.59317139 28.2464502 53.05328613 27.734375 53.52734375 C23.14885224 57.76262856 18.42953179 61.83252723 13.6875 65.890625 C13.09211426 66.40020752 12.49672852 66.90979004 11.88330078 67.43481445 C10.65710622 68.48364005 9.43022436 69.53166269 8.20263672 70.57885742 C3.94091439 74.22179382 -0.23893514 77.9429802 -4.35546875 81.75 C-6.02734375 83.078125 -6.02734375 83.078125 -8.02734375 83.078125 C-8.1664078 72.99472 -8.272997 62.91154335 -8.33821678 52.82737446 C-8.36952057 48.14474411 -8.41197523 43.46277014 -8.47998047 38.78051758 C-8.54520817 34.26118211 -8.58105697 29.74247763 -8.59660721 25.22270775 C-8.60768756 23.49905653 -8.62932579 21.77543959 -8.66172409 20.05205727 C-8.70533625 17.63591742 -8.71127638 15.22237879 -8.70849609 12.8059082 C-8.73006775 12.09452698 -8.7516394 11.38314575 -8.77386475 10.65020752 C-8.73897888 7.84521762 -8.53775824 5.69569222 -6.71707535 3.49278831 C-2.81563931 0.10850248 -2.81563931 0.10850248 0 0 Z " fill="#FAFAFA" transform="translate(697.02734375,673.921875)"/>
<path d="M0 0 C0.66 0 1.32 0 2 0 C2 31.02 2 62.04 2 94 C-2.06140249 91.96929876 -4.83430349 89.52800093 -8.0625 86.4375 C-12.09937297 82.63648927 -16.16752927 78.96724897 -20.5 75.5 C-25.31274715 71.63575047 -29.84540475 67.5380788 -34.34643555 63.32055664 C-38.02506922 59.87555765 -41.78972262 56.57657528 -45.70703125 53.40234375 C-47 52 -47 52 -47 49 C-45.45874023 47.1340332 -45.45874023 47.1340332 -43.30859375 45.05078125 C-42.52806641 44.28443359 -41.74753906 43.51808594 -40.94335938 42.72851562 C-39.70295898 41.53258789 -39.70295898 41.53258789 -38.4375 40.3125 C-31.80866431 33.90030598 -31.80866431 33.90030598 -25.58984375 27.09765625 C-20.6219379 21.29972109 -15.09605008 16.04034397 -9.66308594 10.68359375 C-8.25517685 9.29367409 -6.85019602 7.90079023 -5.4453125 6.5078125 C-4.20031982 5.28022217 -4.20031982 5.28022217 -2.93017578 4.02783203 C-0.9517258 2.14739471 -0.9517258 2.14739471 0 0 Z " fill="#F8F8F9" transform="translate(825,520)"/>
<path d="M0 0 C4.29 0 8.58 0 13 0 C13 17.16 13 34.32 13 52 C-10.76 52 -34.52 52 -59 52 C-51.0135794 44.0135794 -42.75834744 36.51831238 -33.96875 29.43359375 C-29.18424917 25.51156215 -24.53994079 21.42995067 -19.875 17.3671875 C-15.40575069 13.47585836 -10.90182063 9.62540961 -6.39135742 5.78198242 C-4.1966603 3.90731169 -2.04189624 2.04189624 0 0 Z " fill="#FBFBFB" transform="translate(753,222)"/>
<path d="M0 0 C4.2693263 1.98858245 7.78929784 4.54427057 11 8 C11.9375 10.875 11.9375 10.875 12 13 C11.12859375 13.55429687 10.2571875 14.10859375 9.359375 14.6796875 C6.05038929 16.88891067 3.17030116 19.41780189 0.25 22.125 C-0.26876709 22.60437012 -0.78753418 23.08374023 -1.32202148 23.57763672 C-4.65528347 26.67889103 -7.87592696 29.87235766 -11.0625 33.125 C-15.25431742 37.37737337 -19.72360956 41.10119064 -24.37890625 44.83203125 C-31.8438079 50.9818043 -31.8438079 50.9818043 -37 59 C-32.296045 57.15531177 -28.89548541 55.28040877 -25 52 C-24.26652344 51.60296875 -23.53304687 51.2059375 -22.77734375 50.796875 C-19.07188545 48.39953208 -16.24377032 45.41225856 -13.1875 42.25 C-8.95184135 37.93547726 -4.70654324 33.76759221 -0.0859375 29.86328125 C4.8254268 25.4761637 9.37973389 20.6895701 14 16 C16.62765131 16.99833462 18.77432169 17.82368882 21 19.5625 C23.32462791 21.23332631 25.19109059 21.60987369 28 22 C21.5634388 29.75688144 14.5471226 36.75997785 6.8984375 43.3203125 C5.02029247 44.98204576 3.25694484 46.71125525 1.5 48.5 C-0.85033101 50.89277491 -3.264224 53.13191112 -5.8125 55.3125 C-9.02333755 58.07618029 -12.02267165 60.98619596 -15 64 C-18.52063767 67.55820545 -22.10638339 70.94382568 -25.91015625 74.1953125 C-29.33484251 77.15270512 -32.65713505 80.22385328 -35.99609375 83.27734375 C-38 85 -38 85 -39 85 C-39 68.17 -39 51.34 -39 34 C-36.03 33.01 -33.06 32.02 -30 31 C-27.19381992 28.199326 -27.19381992 28.199326 -25 25 C-22.10361303 21.89168228 -19.75722887 19.87861443 -16 18 C-15.67 17.01 -15.34 16.02 -15 15 C-14.34 15 -13.68 15 -13 15 C-12.78601563 14.45859375 -12.57203125 13.9171875 -12.3515625 13.359375 C-10.51922057 10.1607203 -8.00203394 7.79035516 -5.375 5.25 C-4.859375 4.74339844 -4.34375 4.23679687 -3.8125 3.71484375 C-2.54616661 2.47196098 -1.2736856 1.23534724 0 0 Z " fill="#F8F8F8" transform="translate(728,580)"/>
<path d="M0 0 C3.49863929 1.74931965 6.16123074 3.51959774 9.25 5.875 C10.32288692 6.68753928 11.39580523 7.50003711 12.46875 8.3125 C13.64602598 9.20808015 14.82310178 10.10392348 16 11 C26.47264351 18.96974758 37.09399463 26.63264531 48 34 C46.66000502 37.006818 45.20154709 38.99762609 42.8125 41.25 C40.29873261 43.6283654 37.99671561 46.12286214 35.73046875 48.734375 C32.09116992 52.92528748 28.31854537 56.9726242 24.5 61 C23.10260716 62.47762118 21.70547883 63.95549255 20.30859375 65.43359375 C19.6007373 66.18237793 18.89288086 66.93116211 18.16357422 67.70263672 C15.98701206 70.01379108 13.82180376 72.33505158 11.66015625 74.66015625 C10.97179687 75.39943359 10.2834375 76.13871094 9.57421875 76.90039062 C8.25057596 78.32298535 6.92890423 79.74741703 5.609375 81.17382812 C5.01769531 81.80869141 4.42601562 82.44355469 3.81640625 83.09765625 C3.29506104 83.65976807 2.77371582 84.22187988 2.23657227 84.80102539 C1 86 1 86 0 86 C0 57.62 0 29.24 0 0 Z " fill="#FBFBFB" transform="translate(777,321)"/>
<path d="M0 0 C0 30.03 0 60.06 0 91 C-7.59 91 -15.18 91 -23 91 C-23 90.34 -23 89.68 -23 89 C-22.18860062 88.57869308 -21.37720123 88.15738617 -20.54121399 87.72331238 C-17.7663582 86.25246349 -17.7663582 86.25246349 -17.36076355 83.47529602 C-17.35410172 82.46935898 -17.34743988 81.46342194 -17.34057617 80.42700195 C-17.32093307 79.28604568 -17.30128998 78.14508942 -17.28105164 76.96955872 C-17.28498428 75.73823715 -17.28891693 74.50691559 -17.29296875 73.23828125 C-17.27784744 71.97735153 -17.26272614 70.71642181 -17.24714661 69.4172821 C-17.21141082 66.06811198 -17.19710459 62.72023418 -17.19311523 59.37097168 C-17.18378936 55.95222713 -17.14665067 52.53379291 -17.11132812 49.11523438 C-17.04408985 42.40974488 -17.02330805 35.70636306 -17 29 C-30.365 29.495 -30.365 29.495 -44 30 C-37.29251701 22.17460317 -37.29251701 22.17460317 -34.375 19.75 C-30.78688472 16.69422552 -27.28603347 13.55951672 -23.8125 10.375 C-23.06395752 9.69195801 -23.06395752 9.69195801 -22.30029297 8.99511719 C-19.91430724 6.80670726 -17.85404285 4.79816211 -15.94921875 2.1640625 C-13 0 -13 0 0 0 Z " fill="#FCFBFC" transform="translate(990,222)"/>
<path d="M0 0 C0.20432886 6.4915533 0.34355041 12.98226606 0.43945312 19.47631836 C0.47946601 21.68106062 0.53389642 23.88559356 0.60351562 26.08959961 C1.28734853 48.30914087 1.28734853 48.30914087 -5.88818359 56.06713867 C-6.58508301 56.70498291 -7.28198242 57.34282715 -8 58 C-8.52029785 58.55212158 -9.0405957 59.10424316 -9.57666016 59.6730957 C-10.94140625 61.078125 -10.94140625 61.078125 -13.5625 63.25 C-14.86380859 64.37148438 -14.86380859 64.37148438 -16.19140625 65.515625 C-19.99945056 67.52822144 -21.871703 67.09998852 -26 66 C-28.56870086 64.84765989 -30.93571474 63.68499354 -33.375 62.3125 C-34.02694336 61.95599365 -34.67888672 61.5994873 -35.35058594 61.23217773 C-39.81552717 58.75786536 -44.10345713 56.08920782 -48.265625 53.12890625 C-50.11451313 51.82155407 -50.11451313 51.82155407 -53 51 C-53 50.34 -53 49.68 -53 49 C-51.53125 47.5546875 -51.53125 47.5546875 -49.5 45.875 C-45.09641089 42.1303987 -41.04548565 38.12449904 -37 34 C-32.4948992 29.40690895 -27.92838561 24.99440226 -23.05322266 20.79492188 C-19.33817639 17.54723815 -15.77138076 14.1409269 -12.1875 10.75 C-11.06311523 9.69039062 -11.06311523 9.69039062 -9.91601562 8.609375 C-6.06846949 4.99911408 -6.06846949 4.99911408 -2.3293457 1.27832031 C-1 0 -1 0 0 0 Z " fill="#FBFBFC" transform="translate(758,615)"/>
<path d="M0 0 C7.84413793 6.7235468 7.84413793 6.7235468 10.8671875 9.62109375 C11.52106445 10.24322754 12.17494141 10.86536133 12.84863281 11.50634766 C13.51733398 12.14362793 14.18603516 12.7809082 14.875 13.4375 C19.83037418 18.13380695 24.80921432 22.56579229 30.29296875 26.64453125 C32.61819023 28.49087416 34.37309122 30.52426925 36 33 C36 33.66 36 34.32 36 35 C34.00586713 36.34209235 32.00468241 37.67371714 30 39 C28.16535059 40.72626234 26.37393671 42.4994527 24.625 44.3125 C17.27171311 51.82253095 9.41232235 58.68665867 1 65 C0.67 65 0.34 65 0 65 C0 43.55 0 22.1 0 0 Z " fill="#F7F7F7" transform="translate(689,542)"/>
<path d="M0 0 C0.66 0 1.32 0 2 0 C2.34899546 9.45748685 2.61475935 18.91273037 2.77718258 28.3752718 C2.85518237 32.77049361 2.96074463 37.16128458 3.1315918 41.55395508 C3.29573735 45.80136466 3.3844781 50.04454379 3.42315865 54.29488182 C3.45068044 55.9080896 3.50444109 57.52108877 3.58595085 59.13247108 C4.18216085 71.41840484 4.18216085 71.41840484 0.47224808 75.80739975 C-9.62412441 85 -9.62412441 85 -14 85 C-14.30227896 75.52500716 -14.53271111 66.0516918 -14.67355824 56.57291603 C-14.74119016 52.17040435 -14.83276159 47.77120832 -14.98071289 43.37060547 C-15.12281965 39.11682455 -15.19985694 34.86621339 -15.23340416 30.61024094 C-15.2572802 28.99358577 -15.30391561 27.37708928 -15.37449074 25.76179886 C-15.89202698 13.41653595 -15.89202698 13.41653595 -12.67809677 9.31163788 C-9.16233007 5.92718984 -5.20445669 3.44091164 -1 1 C-0.67 0.67 -0.34 0.34 0 0 Z " fill="#FBFBFB" transform="translate(764,308)"/>
<path d="M0 0 C0.25547573 9.3793455 0.45061333 18.75748479 0.56993389 28.13955688 C0.62722035 32.49679893 0.70483072 36.85165244 0.82983398 41.20751953 C0.94983897 45.41581439 1.01521897 49.6218212 1.04364967 53.83169556 C1.06389276 55.43311594 1.10343042 57.03441822 1.16303062 58.63485718 C1.61000873 71.14110721 1.61000873 71.14110721 -2.34628296 75.70898438 C-5.14880842 77.78112584 -7.89752351 79.420831 -11 81 C-12.67158891 81.99175012 -14.33992427 82.98909627 -16 84 C-16.27905344 74.65529548 -16.49175066 65.31204133 -16.62174606 55.96406746 C-16.68416728 51.62232622 -16.76868745 47.28345086 -16.90527344 42.94335938 C-17.03646648 38.74797727 -17.1075664 34.55533498 -17.13852692 30.35805893 C-17.16056215 28.76380145 -17.20360013 27.16968064 -17.26876068 25.57660294 C-17.74519907 13.43635156 -17.74519907 13.43635156 -14.7971344 9.32076263 C-11.22236894 5.55143366 -5.39863669 0 0 0 Z " fill="#F6F6F6" transform="translate(741,328)"/>
<path d="M0 0 C0.27857276 9.00534362 0.49150691 18.0091965 0.62174606 27.01791477 C0.68427237 31.20172774 0.76898365 35.38258567 0.90527344 39.56469727 C1.0360938 43.60446339 1.10748764 47.64139765 1.13852692 51.68311882 C1.1606289 53.22125809 1.20380054 54.75924915 1.26876068 56.296175 C1.46180354 61.05465066 1.45070188 65.40562026 0 70 C-3.59236268 73.45151325 -7.37627755 75.24778897 -12 77 C-12.95368469 77.38414566 -13.90736938 77.76829132 -14.88995361 78.16407776 C-15.58626892 78.4399321 -16.28258423 78.71578644 -17 79 C-17.30298418 70.73291317 -17.53304776 62.46819176 -17.67355824 54.19690323 C-17.74104761 50.35467986 -17.83232777 46.51628728 -17.98071289 42.67626953 C-18.99385092 15.7758375 -18.99385092 15.7758375 -14.15380859 9.31445312 C-11.11412584 6.16667462 -7.85140893 4.04625952 -4 2 C-1 0 -1 0 0 0 Z " fill="#F5F5F5" transform="translate(715,350)"/>
<path d="M0 0 C10.56 0 21.12 0 32 0 C32 10.56 32 21.12 32 32 C21.44 32 10.88 32 0 32 C0 21.44 0 10.88 0 0 Z " fill="#FDFDFD" transform="translate(999,224)"/>
<path d="M0 0 C12.54 0 25.08 0 38 0 C38 6.27 38 12.54 38 19 C21.83 19 5.66 19 -11 19 C-9.37788304 14.94470759 -8.0063002 12.37304285 -5.5 8.9375 C-3.33918729 5.96638252 -1.65614451 3.31228902 0 0 Z " fill="#F8F8F8" transform="translate(952,332)"/>
<path d="M0 0 C7.59 0 15.18 0 23 0 C23 6.27 23 12.54 23 19 C15.41 19 7.82 19 0 19 C0 12.73 0 6.46 0 0 Z " fill="#F4F4F4" transform="translate(994,196)"/>
<path d="M0 0 C5.63291889 1.12658378 5.63291889 1.12658378 8.55078125 3.8359375 C9.16630859 4.40570312 9.78183594 4.97546875 10.41601562 5.5625 C11.04185547 6.160625 11.66769531 6.75875 12.3125 7.375 C12.95767578 7.96539063 13.60285156 8.55578125 14.26757812 9.1640625 C17.78173629 12.46625557 17.78173629 12.46625557 19 14 C19 14.99 19 15.98 19 17 C17.02 17 15.04 17 13 17 C13.10054687 18.02867187 13.20109375 19.05734375 13.3046875 20.1171875 C12.93786067 24.79187813 11.226018 26.87021251 8.125 30.125 C4.98115932 33.53302897 2.43428221 36.49932135 1 41 C0.67 41 0.34 41 0 41 C0 27.47 0 13.94 0 0 Z " fill="#FAFAFB" transform="translate(690,546)"/>
<path d="M0 0 C0.99 0.66 1.98 1.32 3 2 C2.43006922 5.74728174 0.91151825 7.45229753 -1.75390625 10.08203125 C-2.52669922 10.84966797 -3.29949219 11.61730469 -4.09570312 12.40820312 C-4.90974609 13.20162109 -5.72378906 13.99503906 -6.5625 14.8125 C-7.74295898 15.98522461 -7.74295898 15.98522461 -8.94726562 17.18164062 C-13.24998975 21.42760994 -17.65459502 25.49386182 -22.23364258 29.4387207 C-24.64092961 31.56651622 -26.84770453 33.86177989 -29.0625 36.1875 C-32.85639836 40.02794926 -36.17300658 42.63382675 -41 45 C-41.9075 45.5775 -42.815 46.155 -43.75 46.75 C-46 48 -46 48 -49 48 C-46.27502277 39.69250184 -38.53585953 34.13516441 -31.875 28.875 C-26.08245701 24.26898075 -20.96575802 19.08401492 -15.83349609 13.75927734 C-11.58008785 9.39447286 -7.20117364 5.23106666 -2 2 C-1.34 2 -0.68 2 0 2 C0 1.34 0 0.68 0 0 Z " fill="#090808" transform="translate(740,591)"/>
<path d="M0 0 C1.32 0.66 2.64 1.32 4 2 C2.7040639 4.84905441 1.33419618 6.92159788 -0.87109375 9.13671875 C-1.44029541 9.70986816 -2.00949707 10.28301758 -2.59594727 10.87353516 C-3.20365967 11.47214355 -3.81137207 12.07075195 -4.4375 12.6875 C-5.06132568 13.3067334 -5.68515137 13.9259668 -6.32788086 14.56396484 C-11.61413567 19.74841829 -17.15241304 24.45504623 -23 29 C-23.86882813 29.73476563 -24.73765625 30.46953125 -25.6328125 31.2265625 C-28.3613089 33.27068357 -29.67271963 33.38026061 -33 33 C-31.66373113 29.99156062 -30.23679856 28.03561654 -27.8046875 25.828125 C-26.8602478 24.96102905 -26.8602478 24.96102905 -25.89672852 24.07641602 C-25.22955811 23.47369873 -24.5623877 22.87098145 -23.875 22.25 C-22.50548976 20.99460211 -21.1369908 19.73810007 -19.76953125 18.48046875 C-18.78654053 17.57820557 -18.78654053 17.57820557 -17.78369141 16.65771484 C-15.65433072 14.67874427 -13.59743236 12.63821257 -11.5625 10.5625 C-7.89098507 6.82643097 -3.98756108 3.393669 0 0 Z " fill="#0A0A0A" transform="translate(897,239)"/>
<path d="M0 0 C4.29 0 8.58 0 13 0 C13 4.29 13 8.58 13 13 C8.71 13 4.42 13 0 13 C0 8.71 0 4.42 0 0 Z " fill="#F5F5F5" transform="translate(836,641)"/>
<path d="M0 0 C47.85 0 95.7 0 145 0 C144.34 1.32 143.68 2.64 143 4 C142.01 3.67 141.02 3.34 140 3 C140 2.34 140 1.68 140 1 C93.8 1 47.6 1 0 1 C0 0.67 0 0.34 0 0 Z " fill="#F0F0EF" transform="translate(584,222)"/>
<path d="M0 0 C4.455 0.99 4.455 0.99 9 2 C7.91422541 6.34309837 6.58701643 8.05092907 3.75 11.4375 C2.98171875 12.36433594 2.2134375 13.29117188 1.421875 14.24609375 C-0.96649194 16.96189809 -3.3103276 19.57973649 -6 22 C-8.8125 21.8125 -8.8125 21.8125 -11 21 C-9.48082937 17.54010877 -7.40543426 15.03167107 -4.9375 12.1875 C-1.50237585 7.99453652 0 5.40671647 0 0 Z " fill="#0D0C0C" transform="translate(703,563)"/>
<path d="M0 0 C3.96 0 7.92 0 12 0 C12 3.96 12 7.92 12 12 C8.04 12 4.08 12 0 12 C0 8.04 0 4.08 0 0 Z " fill="#FCFCFC" transform="translate(1045,228)"/>
<path d="M0 0 C0.66 0 1.32 0 2 0 C0.81942825 9.10726777 -4.73857723 14.59934826 -11.74609375 20.19140625 C-18.43926768 25 -18.43926768 25 -21 25 C-19.5012586 20.08081812 -16.65051092 17.0763833 -13.1875 13.4375 C-12.40536133 12.59155273 -12.40536133 12.59155273 -11.60742188 11.72851562 C-8.59162035 8.50940164 -5.45316746 5.75409691 -2 3 C-1.34 2.01 -0.68 1.02 0 0 Z " fill="#151515" transform="translate(800,351)"/>
<path d="M0 0 C3.96 0 7.92 0 12 0 C12 3.96 12 7.92 12 12 C3.50390625 12.09765625 3.50390625 12.09765625 1 12 C0 11 0 11 -0.09765625 8.49609375 C-0.06510417 5.6640625 -0.03255208 2.83203125 0 0 Z " fill="#E8E7E8" transform="translate(1019,283)"/>
<path d="M0 0 C4.29 0 8.58 0 13 0 C13 3.63 13 7.26 13 11 C8.71 11 4.42 11 0 11 C0 7.37 0 3.74 0 0 Z " fill="#EEEEEE" transform="translate(1000,265)"/>
<path d="M0 0 C0.99 0 1.98 0 3 0 C3 3.3 3 6.6 3 10 C8.28 10 13.56 10 19 10 C19 13.63 19 17.26 19 21 C22.96 21 26.92 21 31 21 C31 21.33 31 21.66 31 22 C26.71 22 22.42 22 18 22 C18 19.03 18 16.06 18 13 C15.36 13 12.72 13 10 13 C10 12.67 10 12.34 10 12 C7.69 11.67 5.38 11.34 3 11 C1.33650681 14.32698637 1.75621943 18.06429385 1.68359375 21.7265625 C1.66281265 22.58937836 1.64203156 23.45219421 1.62062073 24.34115601 C1.55513966 27.10235493 1.49624702 29.86365038 1.4375 32.625 C1.3943134 34.49480172 1.35069907 36.36459362 1.30664062 38.234375 C1.19945976 42.82281728 1.09818825 47.41135683 1 52 C0.67 52 0.34 52 0 52 C0 34.84 0 17.68 0 0 Z " fill="#EDEEEE" transform="translate(529,222)"/>
<path d="M0 0 C1 2.4375 1 2.4375 1 6 C-2.33144335 10.89569974 -6.93771563 15.90638177 -12 19 C-14.3125 18.75 -14.3125 18.75 -16 18 C-15.10499325 11.95870444 -10.17563171 8.07124092 -6 4 C-4.9171875 2.8553125 -4.9171875 2.8553125 -3.8125 1.6875 C-2 0 -2 0 0 0 Z " fill="#0B0B0B" transform="translate(881,237)"/>
<path d="M0 0 C5.61 0 11.22 0 17 0 C17.06776418 7.38003994 17.12280904 14.75991002 17.15543652 22.14019489 C17.17109574 25.56713223 17.19233804 28.99384577 17.22631836 32.4206543 C17.26513514 36.35983608 17.27970716 40.29892709 17.29296875 44.23828125 C17.30845261 45.46960281 17.32393646 46.70092438 17.33988953 47.96955872 C17.34011612 49.11051498 17.34034271 50.25147125 17.34057617 51.42700195 C17.34723801 52.432939 17.35389984 53.43887604 17.36076355 54.47529602 C16.947951 57.36425056 16.26471848 58.23613744 14 60 C13.34 59.67 12.68 59.34 12 59 C12.48764832 58.60570801 12.97529663 58.21141602 13.47772217 57.80517578 C15.46357912 55.45027 15.36920335 54.17065891 15.35644531 51.1171875 C15.36094696 49.63049561 15.36094696 49.63049561 15.36553955 48.11376953 C15.35319275 47.04497559 15.34084595 45.97618164 15.328125 44.875 C15.32625183 43.77655762 15.32437866 42.67811523 15.32244873 41.54638672 C15.31572334 39.22295092 15.30179929 36.89952653 15.28125 34.57617188 C15.25012423 31.01421621 15.24028226 27.45270312 15.234375 23.890625 C15.22520388 21.63541126 15.21482777 19.38020203 15.203125 17.125 C15.19887512 16.05620605 15.19462524 14.98741211 15.19024658 13.88623047 C15.18063904 12.89510254 15.17103149 11.90397461 15.16113281 10.8828125 C15.15089081 9.57401123 15.15089081 9.57401123 15.14044189 8.23876953 C15.08522779 5.82866407 15.08522779 5.82866407 14 3 C9.71 3 5.42 3 1 3 C0.67 2.01 0.34 1.02 0 0 Z " fill="#424042" transform="translate(956,251)"/>
<path d="M0 0 C3.3 0 6.6 0 10 0 C10 3.3 10 6.6 10 10 C6.7 10 3.4 10 0 10 C0 6.7 0 3.4 0 0 Z " fill="#DBDADB" transform="translate(832,526)"/>
<path d="M0 0 C3.3 0 6.6 0 10 0 C10 2.97 10 5.94 10 9 C6.7 9 3.4 9 0 9 C0 6.03 0 3.06 0 0 Z " fill="#FBFBFB" transform="translate(834,606)"/>
<path d="M0 0 C0.13277344 0.62390625 0.26554688 1.2478125 0.40234375 1.890625 C1.09918711 4.35007214 2.09695363 5.34517707 4 7 C2.29323198 7.97051515 0.58637133 8.94086799 -1.12109375 9.91015625 C-2.68694679 10.81841612 -4.22280218 11.77814684 -5.75 12.75 C-8 14 -8 14 -11 14 C-9.61085525 9.70281047 -7.61968015 7.29312243 -4.375 4.1875 C-3.55773437 3.39730469 -2.74046875 2.60710938 -1.8984375 1.79296875 C-0.95871094 0.90544922 -0.95871094 0.90544922 0 0 Z " fill="#191817" transform="translate(702,625)"/>
<path d="M0 0 C1.32 1.32 2.64 2.64 4 4 C3.01 4 2.02 4 1 4 C1 24.13 1 44.26 1 65 C0.67 65 0.34 65 0 65 C0 43.55 0 22.1 0 0 Z " fill="#DBDBDC" transform="translate(689,542)"/>
<path d="M0 0 C2.64 0 5.28 0 8 0 C8 2.64 8 5.28 8 8 C5.36 8 2.72 8 0 8 C0 5.36 0 2.72 0 0 Z " fill="#F3F3F3" transform="translate(832,569)"/>
<path d="M0 0 C5.28 0 10.56 0 16 0 C16 3.63 16 7.26 16 11 C19.96 11 23.92 11 28 11 C28 11.33 28 11.66 28 12 C23.71 12 19.42 12 15 12 C15 9.03 15 6.06 15 3 C12.36 3 9.72 3 7 3 C7 2.67 7 2.34 7 2 C4.69 1.67 2.38 1.34 0 1 C0 0.67 0 0.34 0 0 Z " fill="#C6C7C6" transform="translate(532,232)"/>
<path d="M0 0 C-0.33 8.91 -0.66 17.82 -1 27 C-1.33 27 -1.66 27 -2 27 C-2.33 20.4 -2.66 13.8 -3 7 C-4.32 6.67 -5.64 6.34 -7 6 C-6.02388578 4.99702025 -5.04402202 3.99768827 -4.0625 3 C-3.51722656 2.443125 -2.97195313 1.88625 -2.41015625 1.3125 C-1 0 -1 0 0 0 Z " fill="#FAFAF9" transform="translate(758,615)"/>
<path d="M0 0 C0.66 0.33 1.32 0.66 2 1 C1.67 1.66 1.34 2.32 1 3 C1.66 3 2.32 3 3 3 C3 3.66 3 4.32 3 5 C0.69723426 7.21747812 -0.52480092 7.96760006 -3.75 8.1875 C-4.4925 8.125625 -5.235 8.06375 -6 8 C-4.55746343 4.63408134 -2.66735273 2.48952921 0 0 Z " fill="#1B1B1B" transform="translate(870,264)"/>
<path d="M0 0 C4.66666667 4 9.33333333 8 14 12 C13.01 12.33 12.02 12.66 11 13 C8.95703125 11.63671875 8.95703125 11.63671875 6.8125 9.6875 C6.09707031 9.05199219 5.38164063 8.41648437 4.64453125 7.76171875 C3 6 3 6 3 4 C2.01 3.67 1.02 3.34 0 3 C0 2.01 0 1.02 0 0 Z " fill="#060606" transform="translate(702,540)"/>
<path d="M0 0 C3.63 0 7.26 0 11 0 C11.33 0.99 11.66 1.98 12 3 C7.71 3 3.42 3 -1 3 C-0.67 2.01 -0.34 1.02 0 0 Z " fill="#0B0B0B" transform="translate(978,219)"/>
<path d="M0 0 C3.96 0 7.92 0 12 0 C12 3.63 12 7.26 12 11 C11.67 11 11.34 11 11 11 C10.77213542 8.94921875 10.54427083 6.8984375 10.31640625 4.84765625 C10.18113386 2.98859771 10.18113386 2.98859771 9 2 C7.31391034 1.92794489 5.62499341 1.91613932 3.9375 1.9375 C3.01839844 1.94652344 2.09929688 1.95554688 1.15234375 1.96484375 C0.44207031 1.97644531 -0.26820313 1.98804688 -1 2 C-0.67 1.34 -0.34 0.68 0 0 Z " fill="#E9E9E9" transform="translate(977,222)"/>
<path d="M0 0 C0.103125 0.598125 0.20625 1.19625 0.3125 1.8125 C1.08876455 4.28243264 2.07088921 5.32251235 4 7 C2.35 7.66 0.7 8.32 -1 9 C-1 7.68 -1 6.36 -1 5 C-2.32 5.33 -3.64 5.66 -5 6 C-3.35 4.02 -1.7 2.04 0 0 Z " fill="#272626" transform="translate(702,625)"/>
<path d="M0 0 C0 3.59760476 -0.89512296 4.2215623 -3 7 C-3.70514846 9.14733927 -3.70514846 9.14733927 -4 11 C-4.99 10.34 -5.98 9.68 -7 9 C-7 6 -7 6 -5.46875 4.39453125 C-4.49421875 3.61142578 -4.49421875 3.61142578 -3.5 2.8125 C-2.8503125 2.28269531 -2.200625 1.75289063 -1.53125 1.20703125 C-1.0259375 0.80871094 -0.520625 0.41039062 0 0 Z " fill="#EFEEEF" transform="translate(871,318)"/>
<path d="M0 0 C0.66 0 1.32 0 2 0 C2 1.98 2 3.96 2 6 C0.02 6 -1.96 6 -4 6 C-1.125 1.125 -1.125 1.125 0 0 Z " fill="#969595" transform="translate(824,750)"/>
<path d="M0 0 C1.67542976 0.28604898 3.34385343 0.61781233 5 1 C5 2.32 5 3.64 5 5 C4.01 5.33 3.02 5.66 2 6 C2 5.34 2 4.68 2 4 C1.34 4 0.68 4 0 4 C-0.33 3.01 -0.66 2.02 -1 1 C-0.67 0.67 -0.34 0.34 0 0 Z " fill="#191819" transform="translate(870,246)"/>
<path d="M0 0 C-0.1875 1.8125 -0.1875 1.8125 -1 4 C-3.4375 5.8125 -3.4375 5.8125 -6 7 C-6.66 6.67 -7.32 6.34 -8 6 C-7.0479279 4.99403703 -6.08812654 3.99538437 -5.125 3 C-4.59132813 2.443125 -4.05765625 1.88625 -3.5078125 1.3125 C-2 0 -2 0 0 0 Z " fill="#ECEBED" transform="translate(730,580)"/>
<path d="M0 0 C0.66 0.33 1.32 0.66 2 1 C0.95285076 2.32477959 -0.11344669 3.63443746 -1.1875 4.9375 C-1.77917969 5.66839844 -2.37085938 6.39929688 -2.98046875 7.15234375 C-5.32505203 9.29738803 -6.88391498 9.66094412 -10 10 C-6.66666667 6.66666667 -3.33333333 3.33333333 0 0 Z " fill="#151515" transform="translate(929,249)"/>
<path d="M0 0 C0.66 0.33 1.32 0.66 2 1 C0.625 3.5 0.625 3.5 -1 6 C-1.66 6 -2.32 6 -3 6 C-3 6.66 -3 7.32 -3 8 C-3.99 7.67 -4.98 7.34 -6 7 C-4.02 4.69 -2.04 2.38 0 0 Z " fill="#DDDDDF" transform="translate(742,596)"/>
<path d="M0 0 C0.66 0 1.32 0 2 0 C2 0.66 2 1.32 2 2 C2.66 2 3.32 2 4 2 C4.33 3.65 4.66 5.3 5 7 C3.35 7.66 1.7 8.32 0 9 C0.185625 8.2575 0.37125 7.515 0.5625 6.75 C0.99203108 4.05009037 0.85122974 2.55368923 0 0 Z " fill="#DFDFE1" transform="translate(880,236)"/>
<path d="M0 0 C2.97 0.495 2.97 0.495 6 1 C6 1.66 6 2.32 6 3 C6.66 3 7.32 3 8 3 C7.67 3.99 7.34 4.98 7 6 C6.401875 5.505 5.80375 5.01 5.1875 4.5 C3.02970006 2.71723582 3.02970006 2.71723582 0 3 C0 2.01 0 1.02 0 0 Z " fill="#292828" transform="translate(727,578)"/>
<path d="M0 0 C2.97 0.495 2.97 0.495 6 1 C6 1.66 6 2.32 6 3 C6.66 3 7.32 3 8 3 C7.67 3.99 7.34 4.98 7 6 C5.83054208 5.19152271 4.66449539 4.37810888 3.5 3.5625 C2.8503125 3.11003906 2.200625 2.65757812 1.53125 2.19140625 C1.0259375 1.79824219 0.520625 1.40507813 0 1 C0 0.67 0 0.34 0 0 Z " fill="#E5E5E5" transform="translate(750,584)"/>
<path d="M0 0 C3.465 1.98 3.465 1.98 7 4 C6.67 4.99 6.34 5.98 6 7 C3.36 5.35 0.72 3.7 -2 2 C-1.34 1.34 -0.68 0.68 0 0 Z " fill="#111110" transform="translate(792,329)"/>
<path d="M0 0 C0.66 0.66 1.32 1.32 2 2 C-1.465 4.97 -1.465 4.97 -5 8 C-3.95206337 3.80825346 -3.08236365 2.78407039 0 0 Z " fill="#1B1A1B" transform="translate(785,685)"/>
<path d="M0 0 C0.66 0 1.32 0 2 0 C1.67 1.32 1.34 2.64 1 4 C-0.65 4.33 -2.3 4.66 -4 5 C-2.71937515 3.2925002 -1.38232443 1.62626404 0 0 Z " fill="#191819" transform="translate(781,676)"/>
<path d="M0 0 C0 0.99 0 1.98 0 3 C-2.3125 4.75 -2.3125 4.75 -5 6 C-5.99 5.67 -6.98 5.34 -8 5 C-2.25 0 -2.25 0 0 0 Z " fill="#141415" transform="translate(731,326)"/>
<path d="M0 0 C2.125 0.375 2.125 0.375 4 1 C1.03 3.475 1.03 3.475 -2 6 C-2 2 -2 2 0 0 Z " fill="#E2E2E2" transform="translate(869,244)"/>
<path d="M0 0 C0 3.10551666 -0.5393715 4.35261084 -2 7 C-3.32 6.67 -4.64 6.34 -6 6 C-4.02 4.02 -2.04 2.04 0 0 Z " fill="#DAD8DA" transform="translate(757,615)"/>
<path d="M0 0 C2.88575819 0.39803561 3.82189513 0.79009069 5.75 3.0625 C6.1625 3.701875 6.575 4.34125 7 5 C6.01 5.33 5.02 5.66 4 6 C2.62437146 4.71034824 1.29233607 3.37310707 0 2 C0 1.34 0 0.68 0 0 Z " fill="#141314" transform="translate(726,564)"/>
<path d="M0 0 C0.66 0.66 1.32 1.32 2 2 C-0.97 4.475 -0.97 4.475 -4 7 C-4 4 -4 4 -2 1.8125 C-1.34 1.214375 -0.68 0.61625 0 0 Z " fill="#0D0C0D" transform="translate(782,562)"/>
<path d="M0 0 C3.26460973 1.80412643 4.88929795 2.83394693 7 6 C3.20411134 5.45773019 1.52788007 3.79872437 -1 1 C-0.67 0.67 -0.34 0.34 0 0 Z " fill="#131213" transform="translate(709,547)"/>
<path d="M0 0 C0.66 0.33 1.32 0.66 2 1 C0.02 2.98 -1.96 4.96 -4 7 C-4.99 6.67 -5.98 6.34 -7 6 C-4.69 4.02 -2.38 2.04 0 0 Z " fill="#181819" transform="translate(596,323)"/>
</svg>
